<svg xmlns="http://www.w3.org/2000/svg" viewBox="0 0 1200 640" font-family="ui-monospace,'SF Mono',Menlo,monospace">
  <defs>
    <radialGradient id="glow" cx="50%" cy="0%" r="75%">
      <stop offset="0%" stop-color="#52a8ff" stop-opacity="0.18"/>
      <stop offset="60%" stop-color="#52a8ff" stop-opacity="0.04"/>
      <stop offset="100%" stop-color="#52a8ff" stop-opacity="0"/>
    </radialGradient>
    <pattern id="grid" width="48" height="48" patternUnits="userSpaceOnUse">
      <path d="M 48 0 L 0 0 0 48" fill="none" stroke="rgba(255,255,255,0.045)" stroke-width="1"/>
    </pattern>
  </defs>
  <rect width="1200" height="640" fill="#0a0a0a"/>
  <rect width="1200" height="640" fill="url(#grid)"/>
  <ellipse cx="600" cy="80" rx="620" ry="360" fill="url(#glow)"/>
  <polyline points="120,169.8 132,165.4 144,161.6 156,158.5 168,162.6 180,156.0 192,156.8 204,158.9 216,162.1 228,166.1 240,170.5 252,180.8 264,178.6 276,181.6 288,183.5 300,184.0 312,183.1 324,181.0 336,183.7 348,173.7 360,169.3 372,165.0 384,161.2 396,158.2 408,156.5 420,162.0 432,157.0 444,159.2 456,162.5 468,166.5 480,170.9 492,175.2 504,185.0 516,181.9 528,183.6 540,184.0 552,183.0 564,180.7 576,177.3 588,179.2 600,168.9 612,164.6 624,160.8 636,158.0 648,156.4 660,156.1 672,163.1 684,159.5 696,162.9 708,167.0" fill="none" stroke="#52a8ff" stroke-opacity="0.7" stroke-width="1.6"/><text x="108" y="175" text-anchor="end" font-size="14" fill="#8f8f8f">wayside</text><path d="M 720 170 C 800.0 170, 800.0 350, 880 350" fill="none" stroke="#52a8ff" stroke-width="1.5"/><polyline points="120,246.0 132,246.8 144,248.9 156,252.1 168,256.1 180,260.5 192,270.8 204,268.6 216,271.6 228,273.5 240,274.0 252,273.1 264,271.0 276,273.7 288,263.7 300,259.3 312,255.0 324,251.2 336,248.2 348,246.5 360,252.0 372,247.0 384,249.2 396,252.5 408,256.5 420,260.9 432,265.2 444,275.0 456,271.9 468,273.6 480,274.0 492,273.0 504,270.7 516,267.3 528,269.2 540,258.9 552,254.6 564,250.8 576,248.0 588,246.4 600,246.1 612,253.1 624,249.5 636,252.9 648,257.0 660,261.4 672,265.6 684,269.3 696,278.1 708,273.7" fill="none" stroke="#34d399" stroke-opacity="0.7" stroke-width="1.6"/><text x="108" y="265" text-anchor="end" font-size="14" fill="#8f8f8f">AEI</text><path d="M 720 260 C 800.0 260, 800.0 350, 880 350" fill="none" stroke="rgba(255,255,255,0.22)" stroke-width="1.5"/><polyline points="120,350.5 132,360.8 144,358.6 156,361.6 168,363.5 180,364.0 192,363.1 204,361.0 216,363.7 228,353.7 240,349.3 252,345.0 264,341.2 276,338.2 288,336.5 300,342.0 312,337.0 324,339.2 336,342.5 348,346.5 360,350.9 372,355.2 384,365.0 396,361.9 408,363.6 420,364.0 432,363.0 444,360.7 456,357.3 468,359.2 480,348.9 492,344.6 504,340.8 516,338.0 528,336.4 540,336.1 552,343.1 564,339.5 576,342.9 588,347.0 600,351.4 612,355.6 624,359.3 636,368.1 648,363.7 660,363.9 672,362.8 684,360.4 696,356.9 708,352.8" fill="none" stroke="#e8b45a" stroke-opacity="0.7" stroke-width="1.6"/><text x="108" y="355" text-anchor="end" font-size="14" fill="#8f8f8f">CAD</text><path d="M 720 350 C 800.0 350, 800.0 350, 880 350" fill="none" stroke="rgba(255,255,255,0.22)" stroke-width="1.5"/><rect x="880" y="300" width="220" height="100" rx="12" fill="#111" stroke="rgba(255,255,255,0.35)" stroke-width="1.5"/><text x="990" y="342" text-anchor="middle" font-size="14.5" fill="#e8e8e8">join on trainID</text><text x="990" y="370" text-anchor="middle" font-size="13" fill="#34d399">$8M+/yr locked in</text><line x1="120" y1="520" x2="1080" y2="520" stroke="rgba(255,255,255,0.25)" stroke-width="2"/><line x1="140" y1="512" x2="140" y2="528" stroke="rgba(255,255,255,0.14)" stroke-width="1.5"/><line x1="180" y1="512" x2="180" y2="528" stroke="rgba(255,255,255,0.14)" stroke-width="1.5"/><line x1="220" y1="512" x2="220" y2="528" stroke="rgba(255,255,255,0.14)" stroke-width="1.5"/><line x1="260" y1="512" x2="260" y2="528" stroke="rgba(255,255,255,0.14)" stroke-width="1.5"/><line x1="300" y1="512" x2="300" y2="528" stroke="rgba(255,255,255,0.14)" stroke-width="1.5"/><line x1="340" y1="512" x2="340" y2="528" stroke="rgba(255,255,255,0.14)" stroke-width="1.5"/><line x1="380" y1="512" x2="380" y2="528" stroke="rgba(255,255,255,0.14)" stroke-width="1.5"/><line x1="420" y1="512" x2="420" y2="528" stroke="rgba(255,255,255,0.14)" stroke-width="1.5"/><line x1="460" y1="512" x2="460" y2="528" stroke="rgba(255,255,255,0.14)" stroke-width="1.5"/><line x1="500" y1="512" x2="500" y2="528" stroke="rgba(255,255,255,0.14)" stroke-width="1.5"/><line x1="540" y1="512" x2="540" y2="528" stroke="rgba(255,255,255,0.14)" stroke-width="1.5"/><line x1="580" y1="512" x2="580" y2="528" stroke="rgba(255,255,255,0.14)" stroke-width="1.5"/><line x1="620" y1="512" x2="620" y2="528" stroke="rgba(255,255,255,0.14)" stroke-width="1.5"/><line x1="660" y1="512" x2="660" y2="528" stroke="rgba(255,255,255,0.14)" stroke-width="1.5"/><line x1="700" y1="512" x2="700" y2="528" stroke="rgba(255,255,255,0.14)" stroke-width="1.5"/><line x1="740" y1="512" x2="740" y2="528" stroke="rgba(255,255,255,0.14)" stroke-width="1.5"/><line x1="780" y1="512" x2="780" y2="528" stroke="rgba(255,255,255,0.14)" stroke-width="1.5"/><line x1="820" y1="512" x2="820" y2="528" stroke="rgba(255,255,255,0.14)" stroke-width="1.5"/><line x1="860" y1="512" x2="860" y2="528" stroke="rgba(255,255,255,0.14)" stroke-width="1.5"/><line x1="900" y1="512" x2="900" y2="528" stroke="rgba(255,255,255,0.14)" stroke-width="1.5"/><line x1="940" y1="512" x2="940" y2="528" stroke="rgba(255,255,255,0.14)" stroke-width="1.5"/><line x1="980" y1="512" x2="980" y2="528" stroke="rgba(255,255,255,0.14)" stroke-width="1.5"/><line x1="1020" y1="512" x2="1020" y2="528" stroke="rgba(255,255,255,0.14)" stroke-width="1.5"/><line x1="1060" y1="512" x2="1060" y2="528" stroke="rgba(255,255,255,0.14)" stroke-width="1.5"/><rect x="480" y="482" width="120" height="30" rx="6" fill="#111" stroke="#52a8ff" stroke-width="1.5"/><circle cx="505" cy="518" r="7" fill="none" stroke="rgba(255,255,255,0.5)" stroke-width="1.5"/><circle cx="575" cy="518" r="7" fill="none" stroke="#f87171" stroke-width="2"/><text x="640" y="470" font-size="13" fill="#f87171">bearing flagged</text>
  <g>
    <rect x="40" y="568" rx="15" height="30" width="308" fill="rgba(255,255,255,0.04)" stroke="rgba(255,255,255,0.16)"/>
    <text x="194" y="588" text-anchor="middle" font-size="13" letter-spacing="2" fill="#a1a1a1">UNION PACIFIC · CORRELATION ENGINE</text>
  </g>
</svg>