<svg xmlns="http://www.w3.org/2000/svg" viewBox="0 0 1200 640" font-family="ui-monospace,'SF Mono',Menlo,monospace">
<defs>
<radialGradient id="g" cx="50%" cy="0%" r="75%">
<stop offset="0%" stop-color="#34d399" stop-opacity="0.14"/><stop offset="100%" stop-color="#34d399" stop-opacity="0"/>
</radialGradient>
<pattern id="gr" width="48" height="48" patternUnits="userSpaceOnUse">
<path d="M 48 0 L 0 0 0 48" fill="none" stroke="rgba(255,255,255,0.045)" stroke-width="1"/>
</pattern>
</defs>
<rect width="1200" height="640" fill="#0a0a0a"/><rect width="1200" height="640" fill="url(#gr)"/>
<ellipse cx="600" cy="60" rx="620" ry="340" fill="url(#g)"/><rect x="140" y="140" width="400" height="56" rx="14" fill="#111" stroke="#34d399" stroke-width="1.5"/><circle cx="175" cy="168" r="9" fill="none" stroke="rgba(255,255,255,0.5)" stroke-width="2"/><line x1="182" y1="175" x2="191" y2="184" stroke="rgba(255,255,255,0.5)" stroke-width="2"/><text x="205" y="175" font-size="15" fill="#e8e8e8">dermatologist · today▍</text><path d="M 560 168 L 620 168" stroke="rgba(255,255,255,0.3)" stroke-width="1.5"/><rect x="640" y="110" width="420" height="120" rx="14" fill="#101010" stroke="rgba(255,255,255,0.2)" stroke-width="1.5"/><circle cx="690" cy="170" r="26" fill="#1a1a1a" stroke="rgba(255,255,255,0.3)"/><text x="736" y="155" font-size="15" fill="#e8e8e8">Dr. A. Rivera · Dermatology</text><text x="736" y="182" font-size="13" fill="#34d399">$180 self-pay · today 3:40 PM</text><text x="736" y="208" font-size="12" fill="#6e6e6e">out-of-network · transparent rate</text><text x="140" y="330" font-size="14" fill="#8f8f8f">voice agent books the slot</text><rect x="140" y="372" width="10" height="16" rx="5" fill="rgba(82,168,255,0.35)"/><rect x="162" y="362" width="10" height="36" rx="5" fill="rgba(82,168,255,0.38999999999999996)"/><rect x="184" y="350" width="10" height="60" rx="5" fill="rgba(82,168,255,0.43)"/><rect x="206" y="358" width="10" height="44" rx="5" fill="rgba(82,168,255,0.47)"/><rect x="228" y="340" width="10" height="80" rx="5" fill="rgba(82,168,255,0.51)"/><rect x="250" y="364" width="10" height="32" rx="5" fill="rgba(82,168,255,0.35)"/><rect x="272" y="346" width="10" height="68" rx="5" fill="rgba(82,168,255,0.38999999999999996)"/><rect x="294" y="368" width="10" height="24" rx="5" fill="rgba(82,168,255,0.43)"/><rect x="316" y="354" width="10" height="52" rx="5" fill="rgba(82,168,255,0.47)"/><rect x="338" y="336" width="10" height="88" rx="5" fill="rgba(82,168,255,0.51)"/><rect x="360" y="360" width="10" height="40" rx="5" fill="rgba(82,168,255,0.35)"/><rect x="382" y="348" width="10" height="64" rx="5" fill="rgba(82,168,255,0.38999999999999996)"/><rect x="404" y="366" width="10" height="28" rx="5" fill="rgba(82,168,255,0.43)"/><rect x="426" y="356" width="10" height="48" rx="5" fill="rgba(82,168,255,0.47)"/><rect x="448" y="370" width="10" height="20" rx="5" fill="rgba(82,168,255,0.51)"/><text x="140" y="470" font-size="13" fill="#6e6e6e">phone bottleneck removed · minutes → seconds</text><rect x="640" y="300" width="420" height="110" rx="14" fill="rgba(52,211,153,0.06)" stroke="#34d399" stroke-width="1.5"/><circle cx="690" cy="355" r="22" fill="none" stroke="#34d399" stroke-width="2"/><path d="M 680 355 L 687 363 L 701 347" fill="none" stroke="#34d399" stroke-width="2.5"/><text x="736" y="345" font-size="15" fill="#e8e8e8">Appointment booked</text><text x="736" y="372" font-size="13" fill="#8f8f8f">search → profile → booked · minimal steps</text><rect x="40" y="568" rx="15" height="30" width="330" fill="rgba(255,255,255,0.04)" stroke="rgba(255,255,255,0.16)"/><text x="205" y="588" text-anchor="middle" font-size="13" letter-spacing="2" fill="#a1a1a1">LUV HEALTH · CARE MARKETPLACE</text></svg>