<svg xmlns="http://www.w3.org/2000/svg" viewBox="0 0 1200 640"><rect width="1200" height="640" fill="#050705"/><rect x="0" y="0" width="1200" height="1.5" fill="rgba(57,255,106,0.045)"/><rect x="0" y="6" width="1200" height="1.5" fill="rgba(57,255,106,0.045)"/><rect x="0" y="12" width="1200" height="1.5" fill="rgba(57,255,106,0.045)"/><rect x="0" y="18" width="1200" height="1.5" fill="rgba(57,255,106,0.045)"/><rect x="0" y="24" width="1200" height="1.5" fill="rgba(57,255,106,0.045)"/><rect x="0" y="30" width="1200" height="1.5" fill="rgba(57,255,106,0.045)"/><rect x="0" y="36" width="1200" height="1.5" fill="rgba(57,255,106,0.045)"/><rect x="0" y="42" width="1200" height="1.5" fill="rgba(57,255,106,0.045)"/><rect x="0" y="48" width="1200" height="1.5" fill="rgba(57,255,106,0.045)"/><rect x="0" y="54" width="1200" height="1.5" fill="rgba(57,255,106,0.045)"/><rect x="0" y="60" width="1200" height="1.5" fill="rgba(57,255,106,0.045)"/><rect x="0" y="66" width="1200" height="1.5" fill="rgba(57,255,106,0.045)"/><rect x="0" y="72" width="1200" height="1.5" fill="rgba(57,255,106,0.045)"/><rect x="0" y="78" width="1200" height="1.5" fill="rgba(57,255,106,0.045)"/><rect x="0" y="84" width="1200" height="1.5" fill="rgba(57,255,106,0.045)"/><rect x="0" y="90" width="1200" height="1.5" fill="rgba(57,255,106,0.045)"/><rect x="0" y="96" width="1200" height="1.5" fill="rgba(57,255,106,0.045)"/><rect x="0" y="102" width="1200" height="1.5" fill="rgba(57,255,106,0.045)"/><rect x="0" y="108" width="1200" height="1.5" fill="rgba(57,255,106,0.045)"/><rect x="0" y="114" width="1200" height="1.5" fill="rgba(57,255,106,0.045)"/><rect x="0" y="120" width="1200" height="1.5" fill="rgba(57,255,106,0.045)"/><rect x="0" y="126" width="1200" height="1.5" fill="rgba(57,255,106,0.045)"/><rect x="0" y="132" width="1200" height="1.5" fill="rgba(57,255,106,0.045)"/><rect x="0" y="138" width="1200" height="1.5" fill="rgba(57,255,106,0.045)"/><rect x="0" y="144" width="1200" height="1.5" fill="rgba(57,255,106,0.045)"/><rect x="0" y="150" width="1200" height="1.5" fill="rgba(57,255,106,0.045)"/><rect x="0" y="156" width="1200" height="1.5" fill="rgba(57,255,106,0.045)"/><rect x="0" y="162" width="1200" height="1.5" fill="rgba(57,255,106,0.045)"/><rect x="0" y="168" width="1200" height="1.5" fill="rgba(57,255,106,0.045)"/><rect x="0" y="174" width="1200" height="1.5" fill="rgba(57,255,106,0.045)"/><rect x="0" y="180" width="1200" height="1.5" fill="rgba(57,255,106,0.045)"/><rect x="0" y="186" width="1200" height="1.5" fill="rgba(57,255,106,0.045)"/><rect x="0" y="192" width="1200" height="1.5" fill="rgba(57,255,106,0.045)"/><rect x="0" y="198" width="1200" height="1.5" fill="rgba(57,255,106,0.045)"/><rect x="0" y="204" width="1200" height="1.5" fill="rgba(57,255,106,0.045)"/><rect x="0" y="210" width="1200" height="1.5" fill="rgba(57,255,106,0.045)"/><rect x="0" y="216" width="1200" height="1.5" fill="rgba(57,255,106,0.045)"/><rect x="0" y="222" width="1200" height="1.5" fill="rgba(57,255,106,0.045)"/><rect x="0" y="228" width="1200" height="1.5" fill="rgba(57,255,106,0.045)"/><rect x="0" y="234" width="1200" height="1.5" fill="rgba(57,255,106,0.045)"/><rect x="0" y="240" width="1200" height="1.5" fill="rgba(57,255,106,0.045)"/><rect x="0" y="246" width="1200" height="1.5" fill="rgba(57,255,106,0.045)"/><rect x="0" y="252" width="1200" height="1.5" fill="rgba(57,255,106,0.045)"/><rect x="0" y="258" width="1200" height="1.5" fill="rgba(57,255,106,0.045)"/><rect x="0" y="264" width="1200" height="1.5" fill="rgba(57,255,106,0.045)"/><rect x="0" y="270" width="1200" height="1.5" fill="rgba(57,255,106,0.045)"/><rect x="0" y="276" width="1200" height="1.5" fill="rgba(57,255,106,0.045)"/><rect x="0" y="282" width="1200" height="1.5" fill="rgba(57,255,106,0.045)"/><rect x="0" y="288" width="1200" height="1.5" fill="rgba(57,255,106,0.045)"/><rect x="0" y="294" width="1200" height="1.5" fill="rgba(57,255,106,0.045)"/><rect x="0" y="300" width="1200" height="1.5" fill="rgba(57,255,106,0.045)"/><rect x="0" y="306" width="1200" height="1.5" fill="rgba(57,255,106,0.045)"/><rect x="0" y="312" width="1200" height="1.5" fill="rgba(57,255,106,0.045)"/><rect x="0" y="318" width="1200" height="1.5" fill="rgba(57,255,106,0.045)"/><rect x="0" y="324" width="1200" height="1.5" fill="rgba(57,255,106,0.045)"/><rect x="0" y="330" width="1200" height="1.5" fill="rgba(57,255,106,0.045)"/><rect x="0" y="336" width="1200" height="1.5" fill="rgba(57,255,106,0.045)"/><rect x="0" y="342" width="1200" height="1.5" fill="rgba(57,255,106,0.045)"/><rect x="0" y="348" width="1200" height="1.5" fill="rgba(57,255,106,0.045)"/><rect x="0" y="354" width="1200" height="1.5" fill="rgba(57,255,106,0.045)"/><rect x="0" y="360" width="1200" height="1.5" fill="rgba(57,255,106,0.045)"/><rect x="0" y="366" width="1200" height="1.5" fill="rgba(57,255,106,0.045)"/><rect x="0" y="372" width="1200" height="1.5" fill="rgba(57,255,106,0.045)"/><rect x="0" y="378" width="1200" height="1.5" fill="rgba(57,255,106,0.045)"/><rect x="0" y="384" width="1200" height="1.5" fill="rgba(57,255,106,0.045)"/><rect x="0" y="390" width="1200" height="1.5" fill="rgba(57,255,106,0.045)"/><rect x="0" y="396" width="1200" height="1.5" fill="rgba(57,255,106,0.045)"/><rect x="0" y="402" width="1200" height="1.5" fill="rgba(57,255,106,0.045)"/><rect x="0" y="408" width="1200" height="1.5" fill="rgba(57,255,106,0.045)"/><rect x="0" y="414" width="1200" height="1.5" fill="rgba(57,255,106,0.045)"/><rect x="0" y="420" width="1200" height="1.5" fill="rgba(57,255,106,0.045)"/><rect x="0" y="426" width="1200" height="1.5" fill="rgba(57,255,106,0.045)"/><rect x="0" y="432" width="1200" height="1.5" fill="rgba(57,255,106,0.045)"/><rect x="0" y="438" width="1200" height="1.5" fill="rgba(57,255,106,0.045)"/><rect x="0" y="444" width="1200" height="1.5" fill="rgba(57,255,106,0.045)"/><rect x="0" y="450" width="1200" height="1.5" fill="rgba(57,255,106,0.045)"/><rect x="0" y="456" width="1200" height="1.5" fill="rgba(57,255,106,0.045)"/><rect x="0" y="462" width="1200" height="1.5" fill="rgba(57,255,106,0.045)"/><rect x="0" y="468" width="1200" height="1.5" fill="rgba(57,255,106,0.045)"/><rect x="0" y="474" width="1200" height="1.5" fill="rgba(57,255,106,0.045)"/><rect x="0" y="480" width="1200" height="1.5" fill="rgba(57,255,106,0.045)"/><rect x="0" y="486" width="1200" height="1.5" fill="rgba(57,255,106,0.045)"/><rect x="0" y="492" width="1200" height="1.5" fill="rgba(57,255,106,0.045)"/><rect x="0" y="498" width="1200" height="1.5" fill="rgba(57,255,106,0.045)"/><rect x="0" y="504" width="1200" height="1.5" fill="rgba(57,255,106,0.045)"/><rect x="0" y="510" width="1200" height="1.5" fill="rgba(57,255,106,0.045)"/><rect x="0" y="516" width="1200" height="1.5" fill="rgba(57,255,106,0.045)"/><rect x="0" y="522" width="1200" height="1.5" fill="rgba(57,255,106,0.045)"/><rect x="0" y="528" width="1200" height="1.5" fill="rgba(57,255,106,0.045)"/><rect x="0" y="534" width="1200" height="1.5" fill="rgba(57,255,106,0.045)"/><rect x="0" y="540" width="1200" height="1.5" fill="rgba(57,255,106,0.045)"/><rect x="0" y="546" width="1200" height="1.5" fill="rgba(57,255,106,0.045)"/><rect x="0" y="552" width="1200" height="1.5" fill="rgba(57,255,106,0.045)"/><rect x="0" y="558" width="1200" height="1.5" fill="rgba(57,255,106,0.045)"/><rect x="0" y="564" width="1200" height="1.5" fill="rgba(57,255,106,0.045)"/><rect x="0" y="570" width="1200" height="1.5" fill="rgba(57,255,106,0.045)"/><rect x="0" y="576" width="1200" height="1.5" fill="rgba(57,255,106,0.045)"/><rect x="0" y="582" width="1200" height="1.5" fill="rgba(57,255,106,0.045)"/><rect x="0" y="588" width="1200" height="1.5" fill="rgba(57,255,106,0.045)"/><rect x="0" y="594" width="1200" height="1.5" fill="rgba(57,255,106,0.045)"/><rect x="0" y="600" width="1200" height="1.5" fill="rgba(57,255,106,0.045)"/><rect x="0" y="606" width="1200" height="1.5" fill="rgba(57,255,106,0.045)"/><rect x="0" y="612" width="1200" height="1.5" fill="rgba(57,255,106,0.045)"/><rect x="0" y="618" width="1200" height="1.5" fill="rgba(57,255,106,0.045)"/><rect x="0" y="624" width="1200" height="1.5" fill="rgba(57,255,106,0.045)"/><rect x="0" y="630" width="1200" height="1.5" fill="rgba(57,255,106,0.045)"/><rect x="0" y="636" width="1200" height="1.5" fill="rgba(57,255,106,0.045)"/><rect x="240" y="90" width="720" height="440" rx="26" fill="#0a0f0a" stroke="rgba(57,255,106,0.5)" stroke-width="2"/><rect x="270" y="118" width="660" height="384" rx="14" fill="#04150a"/><text x="600" y="205" text-anchor="middle" font-family="ui-monospace,'SF Mono',Menlo,monospace" font-size="52" font-weight="bold" fill="#39ff6a" letter-spacing="6">PACKET PATROL</text><text x="600" y="245" text-anchor="middle" font-family="ui-monospace,'SF Mono',Menlo,monospace" font-size="15" fill="rgba(57,255,106,0.65)" letter-spacing="4">ANOMALY DETECTION · NETWORK DEFENSE</text><rect x="320" y="285" width="24" height="20" fill="rgba(57,255,106,0.23)"/><rect x="390" y="285" width="24" height="20" fill="rgba(57,255,106,0.42)"/><rect x="425" y="285" width="24" height="20" fill="rgba(57,255,106,0.18)"/><rect x="460" y="285" width="24" height="20" fill="rgba(57,255,106,0.17)"/><rect x="495" y="285" width="24" height="20" fill="rgba(57,255,106,0.18)"/><rect x="530" y="285" width="24" height="20" fill="rgba(57,255,106,0.36)"/><rect x="600" y="285" width="24" height="20" fill="rgba(57,255,106,0.26)"/><rect x="740" y="285" width="24" height="20" fill="rgba(57,255,106,0.64)"/><rect x="775" y="285" width="24" height="20" fill="rgba(57,255,106,0.58)"/><rect x="810" y="285" width="24" height="20" fill="rgba(57,255,106,0.22)"/><rect x="845" y="285" width="24" height="20" fill="rgba(57,255,106,0.30)"/><rect x="355" y="315" width="24" height="20" fill="rgba(57,255,106,0.44)"/><rect x="425" y="315" width="24" height="20" fill="rgba(57,255,106,0.42)"/><rect x="460" y="315" width="24" height="20" fill="rgba(57,255,106,0.18)"/><rect x="495" y="315" width="24" height="20" fill="rgba(57,255,106,0.49)"/><rect x="530" y="315" width="24" height="20" fill="rgba(57,255,106,0.31)"/><rect x="600" y="315" width="24" height="20" fill="rgba(57,255,106,0.30)"/><rect x="705" y="315" width="24" height="20" fill="rgba(57,255,106,0.44)"/><rect x="740" y="315" width="24" height="20" fill="rgba(57,255,106,0.59)"/><rect x="810" y="315" width="24" height="20" fill="rgba(57,255,106,0.64)"/><rect x="845" y="315" width="24" height="20" fill="rgba(57,255,106,0.36)"/><rect x="355" y="345" width="24" height="20" fill="rgba(57,255,106,0.39)"/><rect x="390" y="345" width="24" height="20" fill="rgba(57,255,106,0.48)"/><rect x="530" y="345" width="24" height="20" fill="rgba(57,255,106,0.50)"/><rect x="635" y="345" width="24" height="20" fill="rgba(57,255,106,0.57)"/><rect x="705" y="345" width="24" height="20" fill="rgba(57,255,106,0.48)"/><rect x="740" y="345" width="24" height="20" fill="rgba(57,255,106,0.50)"/><rect x="320" y="375" width="24" height="20" fill="rgba(57,255,106,0.34)"/><rect x="390" y="375" width="24" height="20" fill="rgba(57,255,106,0.38)"/><rect x="425" y="375" width="24" height="20" fill="rgba(57,255,106,0.21)"/><rect x="460" y="375" width="24" height="20" fill="rgba(57,255,106,0.53)"/><rect x="495" y="375" width="24" height="20" fill="rgba(57,255,106,0.27)"/><rect x="530" y="375" width="24" height="20" fill="rgba(57,255,106,0.59)"/><rect x="565" y="375" width="24" height="20" fill="rgba(57,255,106,0.37)"/><rect x="600" y="375" width="24" height="20" fill="rgba(57,255,106,0.59)"/><rect x="705" y="375" width="24" height="20" fill="rgba(57,255,106,0.36)"/><rect x="740" y="375" width="24" height="20" fill="rgba(57,255,106,0.59)"/><rect x="810" y="375" width="24" height="20" fill="rgba(57,255,106,0.24)"/><rect x="845" y="375" width="24" height="20" fill="rgba(57,255,106,0.27)"/><rect x="320" y="405" width="24" height="20" fill="rgba(57,255,106,0.44)"/><rect x="355" y="405" width="24" height="20" fill="rgba(57,255,106,0.15)"/><rect x="390" y="405" width="24" height="20" fill="rgba(57,255,106,0.33)"/><rect x="530" y="405" width="24" height="20" fill="rgba(57,255,106,0.46)"/><rect x="600" y="405" width="24" height="20" fill="rgba(57,255,106,0.60)"/><rect x="740" y="405" width="24" height="20" fill="rgba(57,255,106,0.35)"/><rect x="775" y="405" width="24" height="20" fill="rgba(57,255,106,0.47)"/><rect x="810" y="405" width="24" height="20" fill="rgba(57,255,106,0.18)"/><rect x="845" y="405" width="24" height="20" fill="rgba(57,255,106,0.23)"/><rect x="320" y="435" width="24" height="20" fill="rgba(57,255,106,0.18)"/><rect x="355" y="435" width="24" height="20" fill="rgba(57,255,106,0.23)"/><rect x="390" y="435" width="24" height="20" fill="rgba(57,255,106,0.33)"/><rect x="425" y="435" width="24" height="20" fill="rgba(57,255,106,0.59)"/><rect x="495" y="435" width="24" height="20" fill="rgba(57,255,106,0.28)"/><rect x="530" y="435" width="24" height="20" fill="rgba(57,255,106,0.33)"/><rect x="565" y="435" width="24" height="20" fill="rgba(57,255,106,0.57)"/><rect x="635" y="435" width="24" height="20" fill="rgba(57,255,106,0.39)"/><rect x="670" y="435" width="24" height="20" fill="rgba(57,255,106,0.20)"/><rect x="705" y="435" width="24" height="20" fill="rgba(57,255,106,0.28)"/><rect x="775" y="435" width="24" height="20" fill="rgba(57,255,106,0.16)"/><rect x="845" y="435" width="24" height="20" fill="rgba(57,255,106,0.22)"/><rect x="670" y="345" width="24" height="20" fill="#ff5a5a"/><rect x="662" y="337" width="40" height="36" fill="none" stroke="#ff5a5a" stroke-width="1.5"/><text x="600" y="482" text-anchor="middle" font-family="ui-monospace,'SF Mono',Menlo,monospace" font-size="13" fill="rgba(57,255,106,0.6)">&gt; anomaly flagged · quarantine? [Y/N]▍</text><rect x="40" y="568" rx="15" height="30" width="300" fill="rgba(255,255,255,0.04)" stroke="rgba(255,255,255,0.16)"/><text x="190" y="588" text-anchor="middle" font-family="ui-monospace,'SF Mono',Menlo,monospace" font-size="13" letter-spacing="2" fill="#a1a1a1">OVERWHELMING STUDIOS · UE5</text></svg>